HIERARCHY
ROOT Hips
{
    OFFSET   0.000000   0.000000   0.000000
    CHANNELS 6 Xposition Yposition Zposition Xrotation Yrotation Zrotation
    JOINT LeftUpLeg
    {
        OFFSET   0.078795   0.000000   0.000000
        CHANNELS 3 Xrotation Yrotation Zrotation
        JOINT LeftLeg
        {
            OFFSET   0.000000  -0.427566   0.000000
            CHANNELS 3 Xrotation Yrotation Zrotation
            JOINT LeftFoot
            {
                OFFSET   0.000000  -0.394685   0.000000
                CHANNELS 3 Xrotation Yrotation Zrotation
                JOINT LeftToeBase
                {
                    OFFSET   0.000000  -0.039971   0.149173
                    CHANNELS 3 Xrotation Yrotation Zrotation
                }
            }
        }
    }
    JOINT RightUpLeg
    {
        OFFSET  -0.078795   0.000000   0.000000
        CHANNELS 3 Xrotation Yrotation Zrotation
        JOINT RightLeg
        {
            OFFSET   0.000000  -0.427566   0.000000
            CHANNELS 3 Xrotation Yrotation Zrotation
            JOINT RightFoot
            {
                OFFSET   0.000000  -0.394685   0.000000
                CHANNELS 3 Xrotation Yrotation Zrotation
                JOINT RightToeBase
                {
                    OFFSET   0.000000  -0.039971   0.149173
                    CHANNELS 3 Xrotation Yrotation Zrotation
                }
            }
        }
    }
    JOINT Spine
    {
        OFFSET   0.000000   0.001000   0.000000
        CHANNELS 3 Xrotation Yrotation Zrotation
        JOINT Spine1
        {
            OFFSET   0.000000   0.211086   0.000000
            CHANNELS 3 Xrotation Yrotation Zrotation
            JOINT Neck
            {
                OFFSET   0.000000   0.158868   0.000000
                CHANNELS 3 Xrotation Yrotation Zrotation
            }
            JOINT LeftShoulder
            {
                OFFSET   0.000000   0.158868   0.000000
                CHANNELS 3 Xrotation Yrotation Zrotation
                JOINT LeftArm
                {
                    OFFSET   0.189194  -0.000001   0.000000
                    CHANNELS 3 Xrotation Yrotation Zrotation
                    JOINT LeftForeArm
                    {
                        OFFSET   0.272680  -0.000001   0.000000
                        CHANNELS 3 Xrotation Yrotation Zrotation
                        JOINT LeftHand
                        {
                            OFFSET   0.258023  -0.000001   0.000000
                            CHANNELS 3 Xrotation Yrotation Zrotation
                        }
                    }
                }
            }
            JOINT RightShoulder
            {
                OFFSET   0.000000   0.158868   0.000000
                CHANNELS 3 Xrotation Yrotation Zrotation
                JOINT RightArm
                {
                    OFFSET  -0.189194  -0.000001   0.000000
                    CHANNELS 3 Xrotation Yrotation Zrotation
                    JOINT RightForeArm
                    {
                        OFFSET  -0.272680  -0.000001   0.000000
                        CHANNELS 3 Xrotation Yrotation Zrotation
                        JOINT RightHand
                        {
                            OFFSET  -0.258023  -0.000001   0.000000
                            CHANNELS 3 Xrotation Yrotation Zrotation
                        }
                    }
                }
            }
        }
    }
}
MOTION
Frames: 12
Frame Time:   0.016667
  0.543983   0.880620   3.755479   6.010665  67.298531 -12.126296 -41.230312   3.091886  -4.932551  64.389877  10.183200   7.891487   1.299758   4.313737   9.696519   0.000000   0.000000   0.000000   3.068383 -16.783680  -0.375668  16.653942  -1.664381  -3.734691 -17.201295  -4.483019  13.840624   0.000000   0.000000   0.000000   1.524802   1.287715   0.795851   6.052752   5.149537   3.082734  10.550144  13.896109  -5.051415  -0.944836   2.049019 -18.510501  16.569670 -20.104225 -48.315010  -2.279842 -43.951985   4.121318  11.251736  -2.670899   5.374240  -0.209528   5.501625  19.283924  45.016918  37.324937  33.443673   0.187484  12.817355  -1.007959  17.083593 -10.824727  17.981030
  0.548065   0.879728   3.765246   7.527866  68.184857 -13.272209 -42.302169   5.088644  -5.175884  62.360529   9.928783   7.398697   0.890733   4.238673   9.007886   0.000000   0.000000   0.000000   3.653086 -17.560705   0.098088  16.282334  -1.803994  -3.868034 -17.678275  -4.598706  13.595717   0.000000   0.000000   0.000000   1.481626   1.304907   0.733690   5.884967   5.213578   2.840806  10.054936  13.651814  -5.112871  -0.949432   1.937907 -18.460251  18.192179 -19.437252 -47.836794  -2.180460 -43.017077   4.146418   9.924214  -2.224157   4.164363  -0.184594   5.291796  19.006400  39.045207  33.860694  34.059521   0.198183  12.182497  -2.064418  17.559319 -12.355932  16.009001
  0.553574   0.877845   3.774711   8.564185  68.890981 -14.093523 -43.212617   6.237673  -5.271839  59.835793   9.579915   6.600162   0.581416   4.057588   8.724060   0.000000   0.000000   0.000000   4.407067 -17.774096   0.542001  16.066757  -2.137205  -3.724204 -18.248092  -4.805401  13.287692   0.000000   0.000000   0.000000   1.480732   1.375095   0.700967   5.881706   5.492870   2.707914   9.389856  13.221382  -5.115550  -0.959549   1.750105 -18.430669  19.755245 -19.147360 -47.343582  -2.064999 -41.943746   4.243172   9.050690  -1.802573   2.879909  -0.148511   4.932290  18.652103  33.008048  30.582992  34.413524   0.232212  12.806642  -3.232134  17.272517 -12.945569  14.078072
  0.559562   0.875760   3.783989   9.449490  69.520580 -14.791421 -44.029974   7.107772  -5.341234  57.136406   9.232987   5.752086   0.320790   3.867772   8.485289   0.000000   0.000000   0.000000   5.223413 -17.811863   0.963913  15.858153  -2.518737  -3.526175 -18.817172  -5.034907  12.975195   0.000000   0.000000   0.000000   1.493344   1.458618   0.673705   5.931996   5.826260   2.593919   8.724571  12.754320  -5.124234  -0.970220   1.563689 -18.416341  21.250581 -18.955813 -46.878561  -1.947354 -40.804341   4.347234   8.341839  -1.383560   1.604159  -0.113934   4.567979  18.283378  27.218026  27.463589  34.353723   0.284035  13.759612  -4.364938  16.539494 -13.166850  12.245139
  0.566751   0.873562   3.792538   9.798819  69.924236 -14.947729 -44.491201   7.289821  -5.460968  53.982701   8.844686   4.991614   0.230337   3.734165   8.093673   0.000000   0.000000   0.000000   6.210248 -17.468141   1.288158  15.527007  -2.969736  -3.303826 -19.283861  -5.311687  12.710381   0.000000   0.000000   0.000000   1.537813   1.562526   0.647044   6.110015   6.242371   2.475092   8.221950  12.272921  -5.201354  -0.978839   1.461609 -18.465068  22.445183 -18.976205 -46.562801  -1.815873 -39.440610   4.437511   8.049532  -1.016890   0.429915  -0.088594   4.327864  17.910144  22.075309  25.105492  33.748793   0.330999  15.266157  -5.174600  14.169603 -12.347664  10.962616
  0.574159   0.871343   3.800954  10.050589  70.287145 -15.005618 -44.887554   7.347496  -5.590800  50.745068   8.483514   4.229333   0.170075   3.611066   7.674287   0.000000   0.000000   0.000000   7.223781 -17.050938   1.586827  15.175001  -3.434570  -3.079470 -19.733157  -5.595539  12.452313   0.000000   0.000000   0.000000   1.588120   1.670119   0.620405   6.312179   6.673144   2.353924   7.748860  11.789578  -5.293956  -0.987172   1.374871 -18.525265  23.586112 -19.031294 -46.272351  -1.686330 -38.035968   4.520342   7.838639  -0.657398  -0.725096  -0.066005   4.110213  17.536227  17.086444  22.940329  32.898644   0.395650  16.872824  -5.931758  11.532165 -11.293422   9.829892
  0.583271   0.869406   3.808064   9.813800  70.322753 -14.460250 -45.033083   6.987410  -5.700556  47.097653   8.476887   4.235237   0.527366   3.927691   6.858532   0.000000   0.000000   0.000000   8.437305 -16.681113   1.679930  14.426257  -3.674117  -3.061594 -19.897107  -5.782777  12.396346   0.000000   0.000000   0.000000   1.653897   1.768288   0.563632   6.582265   7.064866   2.107842   7.657107  11.417288  -5.425675  -0.986154   1.470553 -18.625435  24.189444 -19.150468 -46.282832  -1.549192 -36.284064   4.479202   7.561538  -0.433568  -1.477316  -0.064622   4.230197  17.262463  12.972022  21.838627  31.822375   0.441110  18.470829  -6.361886   6.696995  -9.867046   9.351386
  0.592689   0.867352   3.815071   9.508792  70.315708 -13.854233 -45.145249   6.599183  -5.777891  43.508707   8.449466   4.323345   0.814931   4.195465   6.241236   0.000000   0.000000   0.000000   9.671797 -16.360531   1.739857  13.668131  -3.857191  -3.060447 -20.044744  -5.938546  12.366947   0.000000   0.000000   0.000000   1.720705   1.866926   0.505492   6.858220   7.457519   1.854450   7.594916  11.059265  -5.547916  -0.984286   1.575417 -18.723467  24.747076 -19.262814 -46.322833  -1.414663 -34.502631   4.421227   7.228162  -0.221699  -2.170826  -0.064073   4.376223  16.993495   8.976756  20.915012  30.719847   0.497489  20.078974  -6.794046   1.811505  -8.451590   8.928156
  0.603791   0.864647   3.821512   8.846782  70.075833 -12.932571 -45.070406   6.054853  -5.672302  40.242571   8.291947   4.860670   0.695401   4.219925   6.727086   0.000000   0.000000   0.000000  11.036501 -16.321041   1.659195  12.859240  -3.727977  -3.134347 -20.101456  -5.922112  12.486511   0.000000   0.000000   0.000000   1.792734   1.968432   0.440353   7.157983   7.860322   1.570009   7.698893  10.778581  -5.615469  -0.978456   1.730797 -18.809725  25.051172 -19.337708 -46.531734  -1.285797 -32.558507   4.290734   6.570706  -0.091495  -2.546200  -0.070331   4.665533  16.751091   5.594568  20.623637  29.840321   0.554766  21.744543  -7.212945  -3.495610  -7.236163   8.239904
  0.615420   0.861930   3.827764   8.099803  69.756515 -11.917534 -44.925985   5.439414  -5.547399  37.142156   8.071083   5.484820   0.494618   4.168080   7.525819   0.000000   0.000000   0.000000  12.426636 -16.346587   1.502235  12.035750  -3.515333  -3.210424 -20.071635  -5.855899  12.659751   0.000000   0.000000   0.000000   1.867072   2.071676   0.367975   7.470228   8.268400   1.254005   7.827552  10.525330  -5.656408  -0.972079   1.887697 -18.891206  25.283502 -19.402308 -46.791638  -1.158217 -30.594794   4.148196   5.832434   0.023655  -2.837931  -0.076496   4.982850  16.505588   2.443968  20.554589  29.079617   0.622814  23.483234  -7.649726  -8.656275  -6.007426   7.434372
  0.628254   0.859789   3.833537   7.163693  69.247357 -10.626465 -44.591997   4.587991  -5.501189  34.616482   7.769513   6.181136   0.257799   3.945476   8.941010   0.000000   0.000000   0.000000  13.824707 -16.442600   1.061799  11.180792  -3.161625  -3.234286 -19.656938  -5.686265  12.978149   0.000000   0.000000   0.000000   1.948502   2.181876   0.263246   7.819639   8.700222   0.803829   7.927263  10.346355  -5.608824  -0.967596   2.002493 -18.958083  25.375585 -19.443534 -47.163581  -1.045020 -28.684952   4.018481   4.972384   0.122887  -2.992984  -0.080090   5.310792  16.216678  -0.049497  20.917409  28.766127   0.705041  25.568013  -8.176528 -12.683136  -4.724232   5.835434
  0.641308   0.857752   3.839225   6.244927  68.697045  -9.336369 -44.223592   3.693832  -5.464152  32.200331   7.429576   6.878562   0.020738   3.686223  10.466881   0.000000   0.000000   0.000000  15.224028 -16.561657   0.572167  10.320425  -2.782216  -3.243708 -19.173446  -5.495166  13.321354   0.000000   0.000000   0.000000   2.031412   2.293203   0.152494   8.179294   9.133827   0.326480   8.021867  10.180989  -5.544985  -0.963370   2.109628 -19.022312  25.441956 -19.480805 -47.555954  -0.932158 -26.785078   3.889571   4.090330   0.220674  -3.121966  -0.081776   5.640677  15.919752  -2.428292  21.362606  28.551776   0.810884  27.715016  -8.731631 -16.463245  -3.333973   4.165564
